<svg viewBox="0 0 64 128" xmlns="http://www.w3.org/2000/svg" aria-hidden="true">
  <defs>
    <radialGradient id="cg" cx="38%" cy="26%" r="74%" fx="30%" fy="16%">
      <stop offset="0%"   stop-color="#ffffff"/>
      <stop offset="22%"  stop-color="#fdfaf3"/>
      <stop offset="55%"  stop-color="#f3ebda"/>
      <stop offset="82%"  stop-color="#e7dabd"/>
      <stop offset="100%" stop-color="#dac9a4"/>
    </radialGradient>
    <linearGradient id="rg" x1="50%" y1="0%" x2="50%" y2="100%">
      <stop offset="0%"   stop-color="#ece0c8"/>
      <stop offset="30%"  stop-color="#dcc596"/>
      <stop offset="68%"  stop-color="#c2a062"/>
      <stop offset="100%" stop-color="#9c7536"/>
    </linearGradient>
    <linearGradient id="rgL" x1="0%" y1="0%" x2="100%" y2="0%">
      <stop offset="0%"   stop-color="#000000" stop-opacity="0"/>
      <stop offset="50%"  stop-color="#ffffff" stop-opacity="0.18"/>
      <stop offset="100%" stop-color="#6b4a18" stop-opacity="0.28"/>
    </linearGradient>
    <linearGradient id="hl" x1="12%" y1="0%" x2="60%" y2="95%">
      <stop offset="0%"   stop-color="#ffffff" stop-opacity="0.92"/>
      <stop offset="32%"  stop-color="#ffffff" stop-opacity="0.40"/>
      <stop offset="70%"  stop-color="#ffffff" stop-opacity="0.06"/>
      <stop offset="100%" stop-color="#ffffff" stop-opacity="0"/>
    </linearGradient>
    <linearGradient id="neck" x1="50%" y1="0%" x2="50%" y2="100%">
      <stop offset="0%"   stop-color="#7a5520" stop-opacity="0"/>
      <stop offset="100%" stop-color="#7a5520" stop-opacity="0.38"/>
    </linearGradient>
  </defs>
  <path d="M16.0,43.0 C13.5,74.0 17.8,99.0 21.0,112.0 C24.2,99.0 31.5,74.0 32.0,43.0 Z" class="tc-root" fill="url(#rg)" stroke="#8a6428" stroke-width="0.9" stroke-linejoin="round" stroke-linecap="round"/>
  <path d="M16.0,43.0 C13.5,74.0 17.8,99.0 21.0,112.0 C24.2,99.0 31.5,74.0 32.0,43.0 Z" fill="url(#rgL)" stroke="none"/>
  <path d="M32.0,43.0 C32.5,74.0 39.8,99.0 43.0,112.0 C46.2,99.0 50.5,74.0 48.0,43.0 Z" class="tc-root" fill="url(#rg)" stroke="#8a6428" stroke-width="0.9" stroke-linejoin="round" stroke-linecap="round"/>
  <path d="M32.0,43.0 C32.5,74.0 39.8,99.0 43.0,112.0 C46.2,99.0 50.5,74.0 48.0,43.0 Z" fill="url(#rgL)" stroke="none"/>
  <path d="M14.5,46.0 C12.9,28.0 9.3,18.0 10.5,6.0 L10.5,6.0 Q12.7,1.6 15.9,1.4 Q19.1,1.6 21.2,6.0 Q23.4,1.6 26.6,1.4 Q29.9,1.6 32.0,6.0 Q34.1,1.6 37.4,1.4 Q40.6,1.6 42.8,6.0 Q44.9,1.6 48.1,1.4 Q51.4,1.6 53.5,6.0 C54.7,18.0 51.1,28.0 49.5,46.0 Q32.0,50.0 14.5,46.0 Z" class="tc-crown tc-stroke" fill="url(#cg)" stroke="#8a6428" stroke-width="1.0" stroke-linejoin="round" stroke-linecap="round"/>
  <path d="M14.5,39.0 Q32.0,49.0 49.5,39.0 L49.5,39.0 Q32.0,45.0 14.5,39.0 Z" fill="url(#neck)" stroke="none" opacity="0.55"/>
  <path d="M19.8,43.0 C18.1,27.7 14.0,19.2 15.2,9.0 L15.2,9.0 Q16.9,6.4 19.4,6.2 Q21.9,6.4 23.6,9.0 Q25.3,6.4 27.8,6.2 Q30.3,6.4 32.0,9.0 Q33.7,6.4 36.2,6.2 Q38.7,6.4 40.4,9.0 Q42.1,6.4 44.6,6.2 Q47.1,6.4 48.8,9.0 C50.0,19.2 45.9,27.7 44.2,43.0 Q32.0,47.0 19.8,43.0 Z" fill="url(#hl)" stroke="none"/>
</svg>